<svg xmlns="http://www.w3.org/2000/svg" viewBox="0 0 486.5 444.7"><path d="M243 313c-13 0-25 11-25 25s12 25 25 25 25-12 25-25c0-14-11-25-25-25z"/><path d="M475 401c15-27 15-59 0-86L318 44c-15-28-43-44-75-44s-59 16-75 43L12 315a86 86 0 000 87c15 27 43 43 75 43h312c32 0 60-17 76-44zm-34-19c-9 15-24 23-42 23H87c-17 0-33-8-41-23-9-15-9-33 0-48L202 63c9-15 24-24 41-24s33 9 41 24l157 271c8 15 8 33 0 48z"/><path d="M237 137c-12 3-19 14-19 27l1 24 5 90c1 10 9 17 19 17s18-7 19-18v-18l4-58 2-37c0-5 0-9-2-13-5-11-17-17-29-14z"/></svg>